<svg xmlns="http://www.w3.org/2000/svg" width="143.957" height="40.705" viewBox="0 0 143.957 40.705">
  <path id="airbnb" d="M405.645,450.226a2.938,2.938,0,0,1-5.847,0,2.762,2.762,0,0,1,2.923-2.648A2.815,2.815,0,0,1,405.645,450.226Zm-12.053,5.338v.652a5.849,5.849,0,0,0-4.362-1.631c-4.9,0-8.725,3.382-8.725,8.068,0,4.645,3.778,8.067,8.725,8.067a5.672,5.672,0,0,0,4.362-1.671v.692a.588.588,0,0,0,.63.57h3.642V454.991h-3.642a.617.617,0,0,0-.63.572Zm0,9.819a4.621,4.621,0,0,1-3.642,1.671c-2.878,0-5.082-1.63-5.082-4.4s2.2-4.4,5.082-4.4a4.751,4.751,0,0,1,3.642,1.671Zm6.971-10.39h4.317v15.32h-4.317V454.992Zm64.49-.408a5.852,5.852,0,0,0-4.363,1.631v-8.6h-4.317v22.695h3.643a.614.614,0,0,0,.629-.571v-.692a5.789,5.789,0,0,0,4.362,1.671c4.9,0,8.725-3.422,8.725-8.067s-3.822-8.069-8.679-8.069Zm-.72,12.428a4.552,4.552,0,0,1-3.643-1.671v-5.46a5.057,5.057,0,0,1,3.643-1.671c2.878,0,5.082,1.63,5.082,4.4S467.212,467.012,464.334,467.012Zm-10.208-5.785v9.127h-4.318v-8.679c0-2.526-.9-3.545-3.326-3.545a5.047,5.047,0,0,0-3.509,1.508v10.675h-4.316V454.993h3.417a.615.615,0,0,1,.63.571v.652a6.557,6.557,0,0,1,4.587-1.631,7.47,7.47,0,0,1,4.723,1.467c1.528,1.141,2.114,2.607,2.114,5.175Zm-25.95-6.642a5.851,5.851,0,0,0-4.362,1.631v-8.6H419.5v22.695h3.642a.615.615,0,0,0,.63-.571v-.692a5.789,5.789,0,0,0,4.362,1.671c4.9,0,8.725-3.422,8.725-8.067.045-4.646-3.777-8.069-8.68-8.069Zm-.72,12.428a4.552,4.552,0,0,1-3.642-1.671v-5.46a5.057,5.057,0,0,1,3.642-1.671c2.879,0,5.082,1.63,5.082,4.4S430.335,467.012,427.456,467.012Zm-11.692-12.428a7.533,7.533,0,0,1,1.979.2v3.626s-3.6-1.1-5.846,1.223v10.716h-4.318V454.992h3.643a.614.614,0,0,1,.629.571v.652A6.189,6.189,0,0,1,415.764,454.585Zm-44.836,14.343c-.225-.489-.45-1.018-.674-1.467-.36-.733-.72-1.426-1.034-2.078l-.045-.041c-3.1-6.112-6.431-12.3-9.939-18.416l-.135-.245q-.554-.951-1.079-1.915a11.683,11.683,0,0,0-1.619-2.241A7.561,7.561,0,0,0,350.691,440a7.883,7.883,0,0,0-5.756,2.445,13.917,13.917,0,0,0-1.619,2.241q-.526.963-1.079,1.915l-.135.245c-3.463,6.111-6.836,12.3-9.939,18.416l-.045.081c-.314.653-.675,1.345-1.035,2.078q-.337.673-.674,1.467a8.341,8.341,0,0,0-.54,4.4,8.861,8.861,0,0,0,5.846,6.764,10.068,10.068,0,0,0,3.643.652,11.187,11.187,0,0,0,1.169-.082,12.733,12.733,0,0,0,4.5-1.385A22.422,22.422,0,0,0,350.6,475a23.266,23.266,0,0,0,5.576,4.237,12.737,12.737,0,0,0,4.5,1.385,11.081,11.081,0,0,0,1.17.082,9.893,9.893,0,0,0,3.642-.652,8.843,8.843,0,0,0,5.847-6.764,7.04,7.04,0,0,0-.407-4.359Zm-20.282,2.119c-2.429-2.771-4-5.378-4.542-7.578a5.969,5.969,0,0,1-.135-2.486,3.733,3.733,0,0,1,.72-1.712,4.952,4.952,0,0,1,3.958-1.793,4.772,4.772,0,0,1,3.958,1.793,3.751,3.751,0,0,1,.72,1.712,5.958,5.958,0,0,1-.135,2.486C354.648,465.627,353.073,468.235,350.646,471.046Zm17.943,1.915a6.189,6.189,0,0,1-4.092,4.768,7.461,7.461,0,0,1-3.418.407,9.491,9.491,0,0,1-3.418-1.059,20.652,20.652,0,0,1-5.127-3.953c2.968-3.3,4.767-6.316,5.442-9a9.26,9.26,0,0,0,.225-3.464,6.267,6.267,0,0,0-1.214-2.771,7.854,7.854,0,0,0-6.341-2.893,7.975,7.975,0,0,0-6.341,2.893,6.273,6.273,0,0,0-1.214,2.771,7.693,7.693,0,0,0,.225,3.464c.674,2.689,5.441,9.045,5.441,9.045a39.038,39.038,0,0,1-5.127,3.953,9.461,9.461,0,0,1-3.417,1.059,7.885,7.885,0,0,1-3.418-.407,5.9,5.9,0,0,1-3.687-7.945,13.775,13.775,0,0,1,.585-1.3c.315-.652.674-1.345,1.034-2.038l.045-.081c3.1-6.071,6.43-12.264,9.893-18.294l.135-.245c.36-.611.72-1.263,1.08-1.874a8.883,8.883,0,0,1,1.259-1.793,5.047,5.047,0,0,1,7.2,0,8.956,8.956,0,0,1,1.259,1.793c.36.611.72,1.263,1.079,1.874l.135.245q5.115,9.082,9.849,18.335v.041c.36.653.675,1.386,1.035,2.038a13.776,13.776,0,0,1,.585,1.3,6.273,6.273,0,0,1,.314,3.137Z" transform="translate(-329.776 -439.998)" fill="#8989a2"/>
</svg>
